<svg xmlns="http://www.w3.org/2000/svg" viewBox="0 0 124 120"><defs><style>.a{isolation:isolate;}.b{fill:#fff;}</style></defs><title>gua_0</title><g class="a"><g class="a"><path class="b" d="M112.59277,19.7793Q120.166,33.74366,120.166,58.042q0,23.03613-6.86329,38.10449-9.94042,21.61671-32.5039,21.61622-20.35254,0-30.29346-17.67188-8.28369-14.751-8.28369-39.60352,0-19.248,4.97021-33.05468,9.30836-25.71827,33.686-25.71875Q102.80957,1.71387,112.59277,19.7793ZM98.30176,95.042q6.5581-9.78222,6.55957-36.44824,0-19.248-4.74219-31.6748Q95.37745,14.49413,81.708,14.49414q-12.5669,0-18.373,11.794Q57.52539,38.083,57.52686,61.04q0,17.27637,3.71386,27.76953,5.68946,16.01514,19.439,16.01465Q91.74219,104.82422,98.30176,95.042Z"/></g></g><g class="a"><g class="a"><path class="b" d="M16.2749,106.55371H7.9585v-3.15625h8.3164V100.625H7.9585V97.46875h6.86621L4.80225,81.64648h7.37841l3.88086,7.67676c1.57813,3.24121,2.13233,4.35059,3.28418,6.65332h.21289c1.23682-2.30273,1.79151-3.54,3.28418-6.65332l3.83838-7.67676h7.25L23.86621,97.46875h6.90918V100.625H22.50146v2.77246h8.27393v3.15625H22.50146v6.56738H16.2749Z"/></g></g><g class="a"><g class="a"><path class="b" d="M78.91992,30.46094c-.37793,1.11523-.82812,2.28418-1.33105,3.40039V46.59766H75.55566V37.60254a14.3835,14.3835,0,0,1-1.13378,1.51172,16.78145,16.78145,0,0,0-1.0254-2.30274,20.37715,20.37715,0,0,0,3.5625-6.94433Zm10.07422,2.87793a9.73107,9.73107,0,0,1-1.99707,2.64453,13.95818,13.95818,0,0,0,3.92188,1.206,8.6064,8.6064,0,0,0-1.15137,1.709,13.59756,13.59756,0,0,1-4.28125-1.709A15.52677,15.52677,0,0,1,81.38477,39.042a7.8883,7.8883,0,0,0-.93555-1.29492v5.86426H78.5957V32.09766h1.85352v1.90722a10.94609,10.94609,0,0,0,2.69824-4.1914l1.94238.44922c-.17968.45019-.37695.918-.59277,1.3496h5.84668v1.72657ZM80.44922,37.333A13.687,13.687,0,0,0,83.88477,36.002a11.95348,11.95348,0,0,1-1.33106-1.38574,9.966,9.966,0,0,1-1.043,1.08008,10.32718,10.32718,0,0,0-1.06152-.86426Zm10.02051,5.14551c-1.8711,2.19433-5.05567,3.39941-8.72559,4.06543a7.47008,7.47008,0,0,0-1.0791-1.69141c3.30957-.44922,6.42187-1.4209,7.96973-3.11231ZM87.1416,38.71875a11.653,11.653,0,0,1-4.57031,2.51855,5.52171,5.52171,0,0,0-1.13281-1.22363,10.79049,10.79049,0,0,0,4.13769-1.94336Zm1.72656,1.61816a13.097,13.097,0,0,1-6.26074,3.25684,6.51334,6.51334,0,0,0-1.043-1.331A12.3459,12.3459,0,0,0,87.33887,39.708Zm-5.27148-6.998a8.45306,8.45306,0,0,0,1.72754,1.65527,7.02616,7.02616,0,0,0,1.43945-1.65527Z"/></g><g class="a"><path class="b" d="M79.98145,63.36035c-1.9795.70215-4.1377,1.38574-5.86524,1.94336L73.63086,63.127c.62891-.16211,1.36719-.36035,2.19434-.59375V58.30566H74.00879V56.34473H75.8252v-3.166H73.84668V51.18164H79.7832v1.99707H77.8584v3.166h1.61914v1.96093H77.8584v3.59766c.59375-.17969,1.1875-.35937,1.76269-.55762ZM90.667,64.458v1.94336H79.09961V64.458h4.96484V62.749H80.34082v-1.9248h3.72363V59.27734H80.4668V50.91113h9.39062v8.36621H86.24121v1.54688h3.81445V62.749H86.24121v1.709ZM82.3916,54.22168h1.85352V52.72852H82.3916Zm0,3.23828h1.85352V55.91309H82.3916Zm5.4336-4.73144H86.044v1.49316H87.8252Zm0,3.18457H86.044V57.46H87.8252Z"/></g><g class="a"><path class="b" d="M85.57617,84.56738c1.72656.55762,3.61621,1.24121,4.749,1.72657l-2.374,1.02539a38.00354,38.00354,0,0,0-4.80371-1.90723l1.36719-.84473H79.71094l1.42187.64746a23.03927,23.03927,0,0,1-5.61328,2.14063,13.88824,13.88824,0,0,0-1.54687-1.5293,24.473,24.473,0,0,0,4.76757-1.25879H76.293V79.22363c-.41406.08985-.8457.16211-1.33106.23438a8.269,8.269,0,0,0-1.00781-1.65528,8.72191,8.72191,0,0,0,4.26367-1.331H76.65332l-.07227.16211-1.94335-.126a27.04594,27.04594,0,0,0,1.13378-3.23828h3.418V72.5498h-4.084V71.29h4.084V70.5166h1.94336V71.29h1.9961V70.5166h2.0332V71.29h3.81445v3.2207H85.16211v.70117h4.9834s-.01758.36036-.03613.55762c-.08985,1.16992-.19727,1.81738-.50391,2.14063a1.601,1.601,0,0,1-1.043.43261c-.07227,0-.16211.01758-.26953.01758v6.207Zm-8.47363-9.35547h1.96094a2.194,2.194,0,0,0,.1084-.70117H77.35449Zm9.01367,3.66993H78.37988V79.584h7.73633Zm0,1.85351H78.37988v.71973h7.73633Zm-7.73633,2.6084h7.73633v-.7373H78.37988Zm2.35645-6.87207a3.64736,3.64736,0,0,1-.88086,1.1875h3.27344v-1.1875Zm2.39258-1.96094h-1.9961c-.01855.2334-.03613.46778-.05469.70117h2.05079Zm-1.9961-1.24121h1.9961V72.5498h-1.9961Zm4.0293-.71973v.71973H87.0332V72.5498Zm0,3.92188v1.1875h1.56543a3.7746,3.7746,0,0,0-.21582-.59375,5.35676,5.35676,0,0,0,.98926.05371.413.413,0,0,0,.37793-.126,1.09466,1.09466,0,0,0,.16211-.52148Z"/></g></g></svg>