<svg xmlns="http://www.w3.org/2000/svg" viewBox="0 0 30 20"><defs><style>.a{fill:#fff;}</style></defs><title>icon10</title><path class="a" d="M22.272,4.4121l-.16066-1.54844a23.19231,23.19231,0,0,0-4.46251.85224A18.34339,18.34339,0,0,0,14.806,5.37577a1.1418,1.1418,0,0,0-1.45626-.1472L6.87008,9.607a1.67084,1.67084,0,0,0-.71032,1.67388l.55408,3.15516A1.672,1.672,0,0,0,8.3601,15.81825h.71405c.212.14482.44266.30189.66587.45253.23788.16084.46721.31419.65786.43823.10938.07122.20551.1329.28723.183.04361.02659.083.05011.12167.07192l.00033.00036a1.33553,1.33553,0,0,0,.3406.13286,1.47794,1.47794,0,0,0,.34078.03921,1.791,1.791,0,0,0,.49617-.07359,2.30231,2.30231,0,0,0,.44606-.1847,2.79816,2.79816,0,0,0,.75429-.59838c.01533-.01738.0511-.05454.09829-.10122.04756-.04667.10718-.10392.17584-.168.13751-.12884.31028-.28661.50145-.46073.38285-.34894.83878-.763,1.25265-1.162.276-.26686.53294-.52614.744-.76537a4.03374,4.03374,0,0,0,.3181-.40144,1.72575,1.72575,0,0,0,.135-.23272,1.16726,1.16726,0,0,0,.05912-.152,1.07439,1.07439,0,0,0,.04-.20379,1.6084,1.6084,0,0,0,.00838-.17142c-.00015-.09269-.006-.18469-.01518-.28284-.00937-.09745-.02231-.19969-.0383-.30771-.032-.21568-.076-.45356-.128-.70706-.104-.50638-.24007-1.07342-.3759-1.60778-.01364-.05451-.02761-.10835-.0414-.1622l.0954-.08212a1.14491,1.14491,0,0,0,.25079-1.43018L16.066,7.52743a12.75752,12.75752,0,0,1,2.21172-1.6677A13.29068,13.29068,0,0,1,22.272,4.4121Zm-7.15475,8.086a3.88416,3.88416,0,0,1-.25079.29886c-.21707.23817-.51578.53228-.8325.83147-.21128.19936-.43121.40209-.64322.59567-.28266.25863-.55083.50093-.76911.70337-.12506.11585-.23323.21809-.323.30735-.04821.04839-.09083.09236-.13191.13834a1.46131,1.46131,0,0,1-.282.24432,1.05939,1.05939,0,0,1-.28042.13594.44992.44992,0,0,1-.11585.01979l-.01825-.001-.00238-.00037-.06354-.03819c-.03121-.01909-.06885-.04261-.11128-.0695-.08483-.05384-.18875-.12166-.304-.19764-.23035-.15265-.50616-.33837-.77675-.522-.14244-.09712-.2832-.19322-.41592-.28423l1.584-1.36269a5.56047,5.56047,0,0,0,.78223,1.05739l.70747-.44229a4.63972,4.63972,0,0,1-.51644-1.45238l2.40921-2.07217q.02838.11655.05586.23276c.10243.43106.19373.85057.25489,1.19369.03512.19592.06.367.07192.49307.00545.05724.008.10429.00871.13732C15.14473,12.45962,15.13247,12.47769,15.11729,12.49811Z"/><path class="a" d="M23.39655,6.8564c-.008,0-1.467,1.86841-1.467,2.67874a1.467,1.467,0,1,0,2.934,0C24.86357,8.72485,23.40475,6.8564,23.39655,6.8564ZM22.898,10.21023a.35474.35474,0,1,1,.35475-.35472A.35492.35492,0,0,1,22.898,10.21023Z"/></svg>