<svg xmlns="http://www.w3.org/2000/svg" viewBox="0 0 30 20"><defs><style>.a{fill:#fff;}</style></defs><title>icon08</title><path class="a" d="M22.09306,9.07779,17.05135,4.0361A.7968.7968,0,0,0,15.93,4.07432L13.61055,6.39379a1.81,1.81,0,0,0-.46783,1.35567l.46321,3.21609-1.952,1.952a.62324.62324,0,0,1-.34984.15624l-.61736.03653a.21812.21812,0,0,0-.20242.21712l.00715.54471a.20851.20851,0,0,1-.20242.21l-.5804.01427a.18848.18848,0,0,0-.18561.20874l.04537.47372a.20391.20391,0,0,1-.18436.22257l-.65472.05922a.20363.20363,0,0,0-.18395.223l.189,1.92346a.20148.20148,0,0,0,.22384.18059l1.47745-.17051a.68261.68261,0,0,0,.34814-.16842l4.50709-4.50666,3.08886.44475a1.81208,1.81208,0,0,0,1.35566-.46826l2.31948-2.31948A.79648.79648,0,0,0,22.09306,9.07779Zm-2.7382.66858-.68832.68832a.41.41,0,0,1-.58,0L15.69444,8.043a.41038.41038,0,0,1,0-.58l.68875-.68874a.41034.41034,0,0,1,.58,0l2.3917,2.39212A.41.41,0,0,1,19.35486,9.74637Z"/></svg>