<svg xmlns="http://www.w3.org/2000/svg" viewBox="0 0 30 20"><defs><style>.a{fill:#fff;}</style></defs><title>icon03</title><path class="a" d="M14.92517,15.59129a.71552.71552,0,0,1-.7154.7154H12.70528a.71522.71522,0,0,1-.7154-.7154V15.261a.71522.71522,0,0,1,.7154-.7154h1.50449a.7155.7155,0,0,1,.7154.7154Z"/><path class="a" d="M8.37376,12.80989H8.248a.71581.71581,0,0,0-.71541.7154v.98811c0,.39524.18426.71585.49981.71585h.07877c.34134,0,.26257.32014.26257.71541v.46342a.71584.71584,0,0,0,.71543.71535h1.0936a.71554.71554,0,0,0,.71541-.71541V13.52526a.71551.71551,0,0,0-.71541-.7154h-1.809Z"/><path class="a" d="M17.26022,6.78823a.71482.71482,0,0,0-.69881.56384L16.16155,9.1956a.71533.71533,0,0,1-.69928.56383H10.98245a.71581.71581,0,0,0-.7154.71541v.54173a.7158.7158,0,0,0,.7154.7154h.14694a.71591.71591,0,0,1,.71541.71585v.35608a.71581.71581,0,0,0,.7154.71541h5.54626a.7159.7159,0,0,0,.69881-.56293l1.159-5.30027a.71546.71546,0,0,0-.69928-.86788Z"/><path class="a" d="M21.67143,5.23489a.715.715,0,0,1-.703.58044H17.8577a.71551.71551,0,0,1-.703-.84943l.4496-2.35577a.71572.71572,0,0,1,.703-.58138h3.11124a.71621.71621,0,0,1,.70252.85037Z"/><path class="a" d="M12.43476,8.57232a.88524.88524,0,0,1-.66523.23689.88519.88519,0,0,1-.66523-.23689,1.09507,1.09507,0,0,1-.30851-.83738,1.07366,1.07366,0,0,1,.30851-.83738.88527.88527,0,0,1,.66523-.2369.88532.88532,0,0,1,.66523.2369,1.07639,1.07639,0,0,1,.30712.83738A1.09788,1.09788,0,0,1,12.43476,8.57232Zm-.26513-.3085a.831.831,0,0,0,.14806-.52888.83139.83139,0,0,0-.14806-.52817.4839.4839,0,0,0-.4001-.18662.49026.49026,0,0,0-.40217.18593.82255.82255,0,0,0-.15011.52886.82269.82269,0,0,0,.15011.52888.49036.49036,0,0,0,.40217.18594A.48461.48461,0,0,0,12.16963,8.26382Z"/><path class="a" d="M12.93141,6.72265h.41731v.83646l.78436-.83646h.54814l-.83308.83494.87579,1.19516h-.54542L13.553,7.86657l-.20431.20718v.679h-.41731Z"/><path class="a" d="M14.91552,6.72953h.43108v.51461l-.11156.94667h-.20521l-.11431-.94667Zm.00964,1.62519h.4118v.398h-.4118Z"/><path class="a" d="M8.6849,11.97017A7.34727,7.34727,0,0,1,8.52649,9.362a7.13385,7.13385,0,0,1,1.52673-3.64317A7.21177,7.21177,0,0,1,15.71344,2.9945a7.32706,7.32706,0,0,1,.79025.04285.2043.2043,0,0,0,.22507-.17647l.012-.09168a.20447.20447,0,0,0-.18022-.22984,7.83363,7.83363,0,0,0-.84706-.046,7.739,7.739,0,0,0-7.739,7.739,7.78988,7.78988,0,0,0,.21771,1.83312.20489.20489,0,0,0,.199.1569h.09516A.204.204,0,0,0,8.6849,11.97017Z"/><path class="a" d="M21.84844,5.89813l-.06991.0618a.204.204,0,0,0-.0346.26614A7.22524,7.22524,0,0,1,22.90809,11.036a7.24226,7.24226,0,0,1-11.19654,5.22953.20417.20417,0,0,0-.31719.17017v.1109a.20351.20351,0,0,0,.09133.17042A7.74182,7.74182,0,0,0,22.15287,5.9363.204.204,0,0,0,21.84844,5.89813Z"/></svg>