<svg xmlns="http://www.w3.org/2000/svg" viewBox="0 0 30 20"><defs><style>.a{fill:#fff;}</style></defs><title>icon05</title><path class="a" d="M21.22987,15.54526l-.114-.65974A1.81585,1.81585,0,0,0,20.059,13.56505l-2.4002-1.1028c-.29468-.13512-.37894-.56238-.38743-.58549a.15362.15362,0,0,0-.13756-.06158h-.00609a.14215.14215,0,0,0-.12015.09956l-.277.9721L15.00005,16.0273l-1.72623-3.13-.28161-.98255a.14948.14948,0,0,0-.14126-.101.147.147,0,0,0-.13006.08181.85979.85979,0,0,1-.37967.56673l-2.40057,1.1028a1.8165,1.8165,0,0,0-1.05658,1.32047l-.114.65974a.85012.85012,0,0,0,.26465.80241c.02891.02166.06519.0538.11112.09469.44181.39195,1.78628,1.58484,5.85422,1.58484,4.06715,0,5.412-1.19289,5.85389-1.58484.046-.04064.08241-.073.11138-.09469A.84992.84992,0,0,0,21.22987,15.54526Z"/><path class="a" d="M16.14383,5.90277A13.4583,13.4583,0,0,0,17.86974,8.707l.066.04113L18.17753,6.86a2.88106,2.88106,0,0,0-.75073-2.21075,3.38441,3.38441,0,0,0-4.8536,0,2.88183,2.88183,0,0,0-.75073,2.21269l.22,1.86921.0736-.08034a4.19694,4.19694,0,0,1,.77155-.55651,8.63909,8.63909,0,0,0,2.94968-2.76336C15.92484,5.4916,16.0291,5.68732,16.14383,5.90277Z"/><path class="a" d="M10.17454,9.58249a.37254.37254,0,0,0,.36317.28653.37885.37885,0,0,0,.08732-.01047l.62951-.1512a.37172.37172,0,0,0,.26092-.23128l.02593.00169-.01179-.04722a.36986.36986,0,0,0,.00116-.17359l-.32818-1.3582A7.58612,7.58612,0,0,1,11.084,6.69489a3.916,3.916,0,1,1,7.83207,0,7.35248,7.35248,0,0,1-.12436,1.219L18.46924,9.257a.34251.34251,0,0,0-.00878.06137L18.4476,9.347a2.46206,2.46206,0,0,1-1.78636,1.21261.402.402,0,0,0-.3542-.21084h-.81226a.40354.40354,0,0,0-.403.40314v.3177a.40354.40354,0,0,0,.403.40315H16.307a.4033.4033,0,0,0,.37728-.26559,3.45431,3.45431,0,0,0,1.6583-.74032,2.8457,2.8457,0,0,0,.61095-.7094l.42146.101a.37875.37875,0,0,0,.08729.01047.37248.37248,0,0,0,.36311-.28653l.32247-1.34311a.37433.37433,0,0,0-.27613-.45063L19.639,7.733a7.60724,7.60724,0,0,0,.08329-1.03808,4.72219,4.72219,0,0,0-9.44438.00007,7.60118,7.60118,0,0,0,.08325,1.03783l-.233.056a.37413.37413,0,0,0-.276.45062Z"/></svg>