<svg xmlns="http://www.w3.org/2000/svg" viewBox="0 0 30 20"><defs><style>.a{fill:#fff;}</style></defs><title>icon01</title><path class="a" d="M24.404,12.00585H22.92867L18.83932,8.34464h-5.8042L8.37506,12.00585l-3.841.7505a.93662.93662,0,0,0-.819.93029v2.885H6.25227l.021.00008v-.00008h.01a2.63963,2.63963,0,0,1,5.27926,0h6.35808l.05258.00008v-.00008h.01a2.63959,2.63959,0,1,1,5.27918,0h1.85494V12.71923A.71362.71362,0,0,0,24.404,12.00585Zm-14.0501-.00769,3.07787-2.41787h3.6827l.01275,0V12.0059H13.29655Zm7.91475-2.41791h.13423l1.86333,1.66937v.75619H18.26861Z"/><path class="a" d="M20.62286,15.07353A1.49816,1.49816,0,1,0,22.121,16.57169,1.49982,1.49982,0,0,0,20.62286,15.07353Z"/><path class="a" d="M8.92291,15.07353a1.49816,1.49816,0,1,0,1.49816,1.49816A1.49982,1.49982,0,0,0,8.92291,15.07353Z"/><path class="a" d="M7.07719,6.175l.40154-.33843L9.67184,7.21714l-.38478.325-.43952-.29376-.62605.52832.21222.48475-.37138.31274ZM8.0439,7.369l.435-.36636-.8405-.56182Z"/><path class="a" d="M8.62359,4.99442l.40489-.22674.993,1.76589.96727-.54395.21724.38646L9.8338,7.14789Z"/><path class="a" d="M10.62124,3.95678l.43785-.15413.67351,1.91,1.04658-.36971.148.41885-1.485.52385Z"/><path class="a" d="M15.356,4.35441a.791.791,0,0,1-.54.22786l-.46074.04021.07707.88462-.46018.04021-.21334-2.46062.95052-.08266a.71966.71966,0,0,1,.5406.1452.79071.79071,0,0,1,.24685.57188A.81914.81914,0,0,1,15.356,4.35441Zm-.43058-.85557a.34.34,0,0,0-.253-.06032l-.41717.03574.0631.7249.41662-.03686a.3336.3336,0,0,0,.239-.10946.39026.39026,0,0,0,.0631-.28817A.357.357,0,0,0,14.92538,3.49884Z"/><path class="a" d="M16.79291,3.01073l.52273.0525.53948,2.53434-.50095-.04914-.09606-.51938-.81425-.08042-.19993.49034-.48364-.048ZM16.6114,4.53759l.56629.05585L16.994,3.59825Z"/><path class="a" d="M20.07951,3.75908a.55878.55878,0,0,1,.14911.22563.78382.78382,0,0,1,.04635.2312.76.76,0,0,1-.03574.26025.81109.81109,0,0,1-.177.30828.45966.45966,0,0,1-.32224.153.42832.42832,0,0,1,.1519.25019.89785.89785,0,0,1-.05082.3887l-.048.15861a1.35717,1.35717,0,0,0-.05473.22227.20786.20786,0,0,0,.04077.15972l-.01787.0592-.49034-.14856c.00224-.05584.00559-.10164.0095-.13515a1.32246,1.32246,0,0,1,.043-.20886l.06367-.22116a.50474.50474,0,0,0,.02122-.32279.352.352,0,0,0-.23065-.15191l-.43393-.1318-.28091.92706-.43449-.1318.71707-2.36344,1.017.30827A.88806.88806,0,0,1,20.07951,3.75908Zm-1.02479.07037L18.8626,4.465l.478.1452a.48127.48127,0,0,0,.22563.02569.28426.28426,0,0,0,.20663-.22785.32243.32243,0,0,0-.03463-.325.41137.41137,0,0,0-.19267-.10388Z"/><path class="a" d="M22.61441,4.86933l-.20161.38757-.58974-.30716-.93879,1.80275-.41439-.21557.93823-1.80274-.59254-.30828.20217-.3887Z"/><path class="a" d="M22.36142,6.77483a.53661.53661,0,0,0-.08879.25243.46566.46566,0,0,0,.21836.363.77741.77741,0,0,0,.23958.13627.28608.28608,0,0,0,.33285-.10388.21684.21684,0,0,0,.03965-.21.97893.97893,0,0,0-.172-.28035L22.77693,6.738a1.4035,1.4035,0,0,1-.26807-.449.628.628,0,0,1,.15134-.55959A.745.745,0,0,1,23.17232,5.43a.87587.87587,0,0,1,.64448.22339.92723.92723,0,0,1,.35128.53613.766.766,0,0,1-.1614.63554l-.35184-.27365a.36126.36126,0,0,0,.05306-.36077.5678.5678,0,0,0-.18039-.21892.49448.49448,0,0,0-.28091-.11728.26362.26362,0,0,0-.22451.11058.21517.21517,0,0,0-.0363.22227,1.22209,1.22209,0,0,0,.17034.26136l.24461.32056a.96112.96112,0,0,1,.19323.37753.63776.63776,0,0,1-.15358.5205.743.743,0,0,1-.53111.29822.9261.9261,0,0,1-.66234-.23233,1.016,1.016,0,0,1-.40936-.59868.76364.76364,0,0,1,.17424-.63219Z"/></svg>