<svg xmlns="http://www.w3.org/2000/svg" viewBox="0 0 30 20"><defs><style>.a{fill:#fff;}</style></defs><title>icon02</title><path class="a" d="M12.80568,3.68442v-1.311h-1.748v1.311H8.14442v-1.311h-1.748v1.311H4.93979V9.511h9.32254V3.68442ZM8.2383,5.97979H6.446V5.4233H8.23832v.55649Zm4.64021,0h-.61794v.61793h-.55648V5.97977h-.61794V5.4233h.61794v-.618h.5565v.618h.61792Z"/><path class="a" d="M9.7188,11.71115a4.54483,4.54483,0,0,0-4.067,6.57107h8.13384A4.54485,4.54485,0,0,0,9.7188,11.71115Zm0,.51779a.44987.44987,0,1,1-.44987.44987A.45.45,0,0,1,9.7188,12.22894ZM6.1428,16.7047a.44987.44987,0,1,1,.44988-.44987A.44984.44984,0,0,1,6.1428,16.7047Zm1.3654-2.66049a.44982.44982,0,1,1,0-.63606A.44972.44972,0,0,1,7.5082,14.04421Zm3.43359-.50618-.53389,2.59553a.8277.8277,0,1,1-.907-.33964l1.30639-2.30624a.07271.07271,0,0,1,.13455.05035Zm1.6237.50618a.44982.44982,0,1,1,0-.63606A.44972.44972,0,0,1,12.56549,14.04421Zm.72934,2.66049a.44987.44987,0,1,1,.44987-.44987A.44985.44985,0,0,1,13.29483,16.7047Z"/><path class="a" d="M9.7188,16.26884a.32251.32251,0,1,0,.32251.32249A.32256.32256,0,0,0,9.7188,16.26884Z"/><path class="a" d="M20.9823,1.62135a4.078,4.078,0,1,0,4.07791,4.078A4.07794,4.07794,0,0,0,20.9823,1.62135Zm0,6.67736A2.59939,2.59939,0,1,1,23.58162,5.6994,2.59927,2.59927,0,0,1,20.9823,8.29871Z"/><path class="a" d="M20.9823,5.95069a.25137.25137,0,1,0-.25144-.25131A.2512.2512,0,0,0,20.9823,5.95069Z"/><path class="a" d="M19.30528,4.7539a.16467.16467,0,0,0,.10354.099l.89586.29134a.2741.2741,0,0,0,.35875-.26075V3.942a.165.165,0,0,0-.20222-.16016s.01335-.01009-.07726.01836a1.99617,1.99617,0,0,0-1.0338.7593c-.05123.07306-.03154.05216-.03154.05216A.16553.16553,0,0,0,19.30528,4.7539Z"/><path class="a" d="M20.28367,5.92656a.273.273,0,0,0-.17594-.176l-.89548-.29093a.16444.16444,0,0,0-.21464.14288s-.00538-.01589-.00634.079a1.99605,1.99605,0,0,0,.40259,1.21784c.05365.07119.03964.046.03964.046a.16456.16456,0,0,0,.25735-.01093l.55384-.7624A.27416.27416,0,0,0,20.28367,5.92656Z"/><path class="a" d="M21.20408,6.54687a.2741.2741,0,0,0-.4433,0l-.55355.76159a.16483.16483,0,0,0,.06969.24849s-.017.0004.07321.0306a1.99442,1.99442,0,0,0,1.28241-.00676c.08425-.029.05607-.02346.05607-.02346a.16431.16431,0,0,0,.069-.2482Z"/><path class="a" d="M22.75288,5.4594l-.896.29121a.27376.27376,0,0,0-.13685.42131l.55317.76174a.16439.16439,0,0,0,.25763.01065s-.00485.016.05162-.06013a1.9962,1.9962,0,0,0,.39031-1.22188c-.0015-.089-.00526-.0604-.00526-.0604a.16428.16428,0,0,0-.21462-.1425Z"/><path class="a" d="M21.41412,5.10524a.27529.27529,0,0,0,.24565.039l.89521-.29134a.164.164,0,0,0,.08979-.24159s.01389.00943-.04126-.06768a1.995,1.995,0,0,0-1.04135-.74879c-.08535-.02588-.05932-.01375-.05932-.01375a.16494.16494,0,0,0-.20183.16v.94227A.275.275,0,0,0,21.41412,5.10524Z"/><path class="a" d="M24.41242,11.88949a.30227.30227,0,0,0-.30061-.27478h-2.986a2.99294,2.99294,0,0,0-1.72039.54379l-2.84725,2.00011a.8518.8518,0,0,0-.3616.69491l.18107,1.77864.114,1.44424a.29565.29565,0,0,0,.289.30218l.00557.00007h7.57563a.30226.30226,0,0,0,.30226-.30225h0V14.64167Zm-.50889,3.2531-.09645.2146a.14426.14426,0,0,1-.13409.07337h-.96832a.14425.14425,0,0,1-.13409-.07337l-.09645-.2146c-.03187-.07062.03654-.14453.13409-.14453h1.16121c.09866.00027.16707.07528.13547.1448ZM17.316,14.485l2.49279-1.75116a2.27732,2.27732,0,0,1,1.31563-.416h2.61864L23.9332,14.485Z"/></svg>