<svg xmlns="http://www.w3.org/2000/svg" viewBox="0 0 30 20"><defs><style>.a{fill:#fff;}</style></defs><title>icon11</title><path class="a" d="M14.724,3.04151a7.34657,7.34657,0,1,0,7.34645,7.34668A7.34651,7.34651,0,0,0,14.724,3.04151Zm0,12.02943a4.68287,4.68287,0,1,1,4.68275-4.68272A4.68266,4.68266,0,0,1,14.724,15.07094Z"/><path class="a" d="M14.724,10.84093a.45285.45285,0,1,0-.453-.45274A.45255.45255,0,0,0,14.724,10.84093Z"/><path class="a" d="M11.70284,8.68488a.29666.29666,0,0,0,.18653.17827l1.61392.52485a.49381.49381,0,0,0,.6463-.46975v-1.696a.29729.29729,0,0,0-.36432-.28852s.024-.0182-.13918.03306a3.59619,3.59619,0,0,0-1.86241,1.3679c-.09229.13163-.05682.094-.05682.094A.29814.29814,0,0,0,11.70284,8.68488Z"/><path class="a" d="M13.46544,10.79745a.49182.49182,0,0,0-.317-.317l-1.61324-.52414a.29624.29624,0,0,0-.38667.25742s-.0097-.02864-.01142.14234a3.59582,3.59582,0,0,0,.72527,2.194c.09666.12825.0714.08282.0714.08282a.29647.29647,0,0,0,.46364-.01969l.99776-1.37349A.49393.49393,0,0,0,13.46544,10.79745Z"/><path class="a" d="M15.12358,11.915a.49381.49381,0,0,0-.79862,0l-.99724,1.372a.29693.29693,0,0,0,.12555.44765s-.03059.00072.1319.05513a3.593,3.593,0,0,0,2.31029-.01217c.15178-.0522.101-.04227.101-.04227a.296.296,0,0,0,.12434-.44713Z"/><path class="a" d="M17.91379,9.95587l-1.61418.52462a.49318.49318,0,0,0-.24654.759l.99655,1.37229a.29615.29615,0,0,0,.46412.0192s-.00872.02889.093-.10834a3.59623,3.59623,0,0,0,.70315-2.20124c-.0027-.16031-.00947-.10882-.00947-.10882a.296.296,0,0,0-.38664-.2567Z"/><path class="a" d="M15.502,9.31783a.496.496,0,0,0,.44255.0702l1.61274-.52485a.29542.29542,0,0,0,.16177-.43523s.025.017-.07433-.12193a3.59424,3.59424,0,0,0-1.876-1.349c-.15377-.04663-.10687-.02477-.10687-.02477a.29712.29712,0,0,0-.3636.2883V8.9181A.49537.49537,0,0,0,15.502,9.31783Z"/></svg>