<svg xmlns="http://www.w3.org/2000/svg" viewBox="0 0 30 20"><defs><style>.a{fill:#fff;}</style></defs><title>icon04</title><path class="a" d="M18.03586,5.24968H14.43739V7.7166a.49426.49426,0,0,1-.49352.49377H11.48243v5.72a.4032.4032,0,0,0,.40272.40272h6.15073a.40326.40326,0,0,0,.40286-.40272V5.6521A.40311.40311,0,0,0,18.03586,5.24968ZM17.217,12.95327H12.70413v-.43118H17.217Zm0-1.74873H12.70413v-.43116H17.217Zm0-1.74856H12.70413V9.02481H17.217Zm0-1.74857H15.08986V7.27626H17.217Z"/><path class="a" d="M13.97751,7.43981V5.37148L11.59865,7.75042h2.06819C13.89038,7.75042,13.97751,7.66336,13.97751,7.43981Z"/><path class="a" d="M23.10394,11.67524,22.61,11.42373l.03637-.2283a7.61088,7.61088,0,0,0,.09667-1.19245,7.54973,7.54973,0,0,0-7.548-7.54959h-.0035a7.54962,7.54962,0,0,0-5.438,12.78468,7.50274,7.50274,0,0,0,5.12827,2.30808l.02329.00046h.00007a.55994.55994,0,0,0,.02222-1.11941,6.42994,6.42994,0,1,1,6.69593-6.42412c0,.121-.00365.24622-.01082.37217l-.02992.52527-.53842-.27417a.1877.1877,0,0,0-.27287.16554l-.02378,2.59372a.1877.1877,0,0,0,.29948.1525l2.0836-1.54483A.1877.1877,0,0,0,23.10394,11.67524Z"/></svg>