<svg xmlns="http://www.w3.org/2000/svg" viewBox="0 0 30 20"><defs><style>.a{fill:#fff;}</style></defs><title>icon06</title><path class="a" d="M27.14769,9.59194a.84764.84764,0,0,0-.30923-.84965L23.43207,6.19583a.692.692,0,0,0-.80059-.026l-2.276,1.48972a.37689.37689,0,0,1-.436-.01417l-1.22772-.9178a.65822.65822,0,0,0-.84071.03774l-.437.38892-.10539-2.13848a.39651.39651,0,0,0-.60611-.33927L9.79366,9.22708a.22923.22923,0,0,1-.34943-.20827V6.27735A.412.412,0,0,0,9.0464,5.8525H5.56281a.38968.38968,0,0,0-.31664.16765l-2.331,3.273a.44391.44391,0,0,0-.08118.25719v4.13814a.412.412,0,0,0,.39782.42485h.63324a.25563.25563,0,0,1,.24932.22665,1.93153,1.93153,0,0,0,1.95442,1.62579,1.92918,1.92918,0,0,0,1.95782-1.65389.21559.21559,0,0,1,.20811-.19855h3.95641a.2274.2274,0,0,1,.219.20881,1.98553,1.98553,0,0,0,3.91629-.02713.1964.1964,0,0,1,.19038-.18168h.49942a.412.412,0,0,0,.39782-.42485v-1.6817a.43074.43074,0,0,0-.20044-.36887l-2.005-1.22355a.37848.37848,0,0,0-.19738-.056H13.20648a.189.189,0,0,1-.12172-.32174L16.694,6.31437a.11622.11622,0,0,1,.19876.0813l.07585,1.134-.64845.59807a.44291.44291,0,0,0,.0288.66726l.85962.65572a.25626.25626,0,0,1,.07053.30808,1.46311,1.46311,0,0,0,.41715,1.74206,1.25217,1.25217,0,0,0,1.68836-.13306A.22217.22217,0,0,1,19.684,11.339l2.8714,2.19033a.37947.37947,0,0,0,.49228-.02565,1.25016,1.25016,0,0,1,1.62445-.07,1.46529,1.46529,0,0,1,.30638,1.944l.086.0656a.64159.64159,0,0,0,.93874-.17678l1.04821-1.63115a.44488.44488,0,0,0-.07715-.57013l-.44238-.38385a.05312.05312,0,0,1-.01655-.05079ZM8.62381,8.90612a.42125.42125,0,0,1-.29466.41032l-4.4671,1.281a.24314.24314,0,0,1-.3014-.24685v-.571a.44355.44355,0,0,1,.08518-.26272L5.69148,6.74058a.38914.38914,0,0,1,.31264-.16213H8.226a.412.412,0,0,1,.39783.42485Zm17.77368.664-.54486,2.64078-5.11-3.85507,2.19513-1.4877a.40036.40036,0,0,1,.475.01628l2.80671,2.18381A.5076.5076,0,0,1,26.39749,9.57008Z"/></svg>