<svg xmlns="http://www.w3.org/2000/svg" viewBox="0 0 30 20"><defs><style>.a{fill:#fff;}</style></defs><title>icon07</title><path class="a" d="M7.8466,17.183a.62419.62419,0,0,0,.62395.624h1.1109a.623.623,0,0,0,.62293-.624v-.91259H7.8466Z"/><path class="a" d="M19.33746,17.183a.62385.62385,0,0,0,.624.624h1.11089a.62385.62385,0,0,0,.624-.624v-.91259H19.33746Z"/><path class="a" d="M22.71006,9.7344h-.9318a.56695.56695,0,0,0-.52272.34678l-.11369.27046L20.06418,7.49191a1.2909,1.2909,0,0,0-1.20745-.83472H10.68607a1.2909,1.2909,0,0,0-1.20744.83472L8.401,10.35214l-.11422-.271a.56631.56631,0,0,0-.52223-.34678H6.83278a.566.566,0,0,0-.56634.56635v.366a.56691.56691,0,0,0,.56634.56737h1.183l.02907.06229-.59179,1.5708a1.61076,1.61076,0,0,0-.10382.56841v1.32787h5.24917a.53691.53691,0,0,1,.516-.38831h3.31342a.53755.53755,0,0,1,.51651.38831h5.24917V13.4356a1.6111,1.6111,0,0,0-.10382-.56841l-.59179-1.5708.02907-.06229H22.71a.56726.56726,0,0,0,.56635-.56738v-.366A.56628.56628,0,0,0,22.71006,9.7344ZM11.37235,13.45221a.29011.29011,0,0,1-.31562.28913l-1.77481-.15418a.2903.2903,0,0,1-.26525-.28914v-.72727a.29141.29141,0,0,1,.33432-.28708l1.77481.26993a.29035.29035,0,0,1,.24658.28708v.61153ZM9.625,10.71447a.16172.16172,0,0,1-.15159-.218l.98524-2.61316a.65336.65336,0,0,1,.60735-.42h7.41073a.65335.65335,0,0,1,.60734.42l.98422,2.61316a.16057.16057,0,0,1-.15053.218ZM20.5262,13.298a.29031.29031,0,0,1-.26525.28914l-1.77481.15418a.28935.28935,0,0,1-.31562-.28913v-.6115a.29033.29033,0,0,1,.24658-.28707l1.77482-.26994a.29141.29141,0,0,1,.33431.28708V13.298Z"/><path class="a" d="M7.34929,15.53121a.484.484,0,0,0,.48382.48382h4.74356v-1.0813H7.34929Z"/><path class="a" d="M16.9662,16.015h4.74356a.484.484,0,0,0,.48382-.48382v-.59748H16.9662Z"/><path class="a" d="M16.42786,14.63108H13.11444a.28169.28169,0,0,0-.28136.28186V16.0643a.28124.28124,0,0,0,.28136.28136h3.31342a.282.282,0,0,0,.28186-.28136V14.91294A.28243.28243,0,0,0,16.42786,14.63108Z"/><path class="a" d="M11.44345,4.50443a.5893.5893,0,0,1,.58813-.58814h5.47967a.5893.5893,0,0,1,.58814.58814V6.09184h.56635V4.50443A1.15436,1.15436,0,0,0,17.51125,3.35H12.03158A1.15433,1.15433,0,0,0,10.8771,4.50443V6.09184h.56635Z"/><path class="a" d="M12.80713,5.91483h.28655a.021.021,0,0,0,.02285-.02179V4.73231a.01216.01216,0,0,1,.01349-.013h.38984a.02084.02084,0,0,0,.02232-.0218V4.45613a.02111.02111,0,0,0-.02232-.0218H12.38145a.021.021,0,0,0-.02286.0218v.24139a.02075.02075,0,0,0,.02286.0218h.38881c.00933,0,.014.00468.014.013V5.893A.02077.02077,0,0,0,12.80713,5.91483Z"/><path class="a" d="M14.17238,4.43437a.029.029,0,0,0-.0296.02179L13.61328,5.893c-.00469.013,0,.02179.01558.02179h.29641a.02651.02651,0,0,0,.02907-.02179l.08668-.25957h.53884l.08774.25957a.02825.02825,0,0,0,.0301.02179h.29382c.01558,0,.02023-.00884.01558-.02179L14.487,4.45616a.02935.02935,0,0,0-.02961-.02179Zm.31665.9276h-.35509l.17442-.51807h.00625Z"/><path class="a" d="M15.21889,5.91483h.3125a.03749.03749,0,0,0,.0379-.02179l.27618-.4506h.00728l.27355.4506a.03817.03817,0,0,0,.03841.02179h.31458c.01608,0,.02077-.013.014-.02594l-.462-.73818.42983-.6904c.00728-.013.00259-.02594-.013-.02594h-.31508a.03758.03758,0,0,0-.03635.02179l-.244.40077h-.00728L15.601,4.45616a.03667.03667,0,0,0-.03635-.02179h-.31458c-.01559,0-.02024.013-.013.02594l.42721.6904-.45891.73818C15.196,5.90184,15.20228,5.91483,15.21889,5.91483Z"/><path class="a" d="M16.851,4.45616V5.893a.02126.02126,0,0,0,.02286.02179h.28757a.02129.02129,0,0,0,.02286-.02179V4.45616a.02125.02125,0,0,0-.02286-.02179h-.28757A.02126.02126,0,0,0,16.851,4.45616Z"/></svg>